<?xml version="1.0" encoding="utf-8"?>
<!-- Generator: Adobe Illustrator 25.4.1, SVG Export Plug-In . SVG Version: 6.00 Build 0)  -->
<svg version="1.1" id="Layer_1" xmlns="http://www.w3.org/2000/svg" xmlns:xlink="http://www.w3.org/1999/xlink" x="0px" y="0px"
	 viewBox="0 0 354 354" style="enable-background:new 0 0 354 354;" xml:space="preserve">
<style type="text/css">
	.st0{fill:#FFFFFF;}
	.st1{enable-background:new    ;}
</style>
<rect width="354" height="354"/>
<g>
	<path id="Path_1" class="st0" d="M284.7,193.58c-2.17-60.95-53.34-108.6-114.28-106.43C111.98,89.23,65.3,136.5,63.94,194.95
		c-4.53,3.69-9.05,7.38-13.57,11.07c0.44,0.6,0.88,1.19,1.31,1.81c4.73-3.44,9.47-6.88,14.2-10.32l3.86-2.8
		c9.98-7.26,20.02-14.55,30.21-21.95c1.38,8.1,3.52,15.37-5.62,19.71c2.5,1.19,4.14,1.99,6.03,2.9c-1.48,4.38-2.86,8.47-4.33,12.82
		c6.86,1.32,12.27,1.35,17.84-3.72c27.7-25.19,55.85-49.9,83.84-74.78c1.29-1.14,2.65-2.19,3.98-3.28c0.2,0.25,0.4,0.5,0.6,0.75
		c-4.28,8.6-8.56,17.19-13.32,26.76c6.14,0.22,11.41,0.41,17.99,0.65c-11.21,13.04-21.48,24.98-31.96,37.17l13.67,6.51l-15.35,11.98
		l0.41,1.65c4.64,0.38,9.3,0.5,13.96,0.36c2.85-0.14,5.59-1.17,7.82-2.95c6.55-6.06,12.6-12.65,18.89-19
		c8.38-8.45,16.81-16.86,25.3-25.36c5.51,7.91,1.8,16.05,1.25,24.36c1.69-0.52,3.33-1.17,4.91-1.96c4.5-2.81,7.85-1.71,11.36,2.11
		c3.79,4.11,7.76,8.62,12.61,11.06c10.77,5.42,22.13,9.66,33.25,14.39l0.87-0.84C297.55,207.24,291.13,200.41,284.7,193.58z
		 M205.58,109.6l-81.72,75.5l-23.47-19.91c-10.2,8.32-20.34,16.6-30.43,24.84c4.13-57.64,54.21-101.01,111.85-96.88
		c50.71,3.64,91.47,43.21,96.61,93.79C254.3,161.32,230.02,135.54,205.58,109.6L205.58,109.6z"/>
	<g class="st1">
		<path class="st0" d="M103.63,254.49h-3.38l-0.5-15.83l-0.21-6.08l-1.18,3.53l-3.75,10.1h-2.39l-3.57-9.71l-1.18-3.92l-0.08,6.35
			l-0.45,15.56h-3.26l1.24-25.38h4.1l3.42,9.56l1.11,3.22l1.07-3.22l3.59-9.56h4.21L103.63,254.49z"/>
		<path class="st0" d="M146.15,254.49h-3.77l-1.77-5.54h-10.56l-1.79,5.54h-3.59l8.43-25.38h4.74L146.15,254.49z M139.62,245.87
			l-4.29-13.58l-4.29,13.58H139.62z"/>
		<path class="st0" d="M186.64,254.49h-3.9l-3.79-8.12c-0.28-0.62-0.58-1.14-0.87-1.54c-0.3-0.41-0.62-0.73-0.96-0.97
			c-0.34-0.24-0.72-0.41-1.13-0.52c-0.41-0.1-0.86-0.16-1.37-0.16h-1.63v11.3h-3.46v-25.38h6.8c1.48,0,2.74,0.16,3.81,0.49
			c1.06,0.32,1.93,0.78,2.61,1.36c0.68,0.58,1.18,1.29,1.5,2.11c0.32,0.82,0.48,1.73,0.48,2.73c0,0.79-0.12,1.54-0.35,2.24
			c-0.23,0.71-0.58,1.35-1.04,1.92c-0.46,0.58-1.03,1.08-1.71,1.5c-0.68,0.42-1.46,0.74-2.34,0.94c0.71,0.25,1.32,0.68,1.82,1.29
			c0.5,0.61,1.01,1.43,1.53,2.46L186.64,254.49z M181.1,236.08c0-1.36-0.42-2.38-1.27-3.05c-0.85-0.67-2.04-1.01-3.58-1.01h-3.26
			v8.39h2.8c0.82,0,1.55-0.09,2.2-0.28s1.21-0.47,1.67-0.83c0.46-0.37,0.82-0.82,1.07-1.36C180.98,237.4,181.1,236.78,181.1,236.08z
			"/>
		<path class="st0" d="M228.32,254.49h-4.35l-9.5-12.45v12.45h-3.46v-25.38h3.46v11.79l9.3-11.79h4.1l-10.02,12.06L228.32,254.49z"
			/>
		<path class="st0" d="M271.41,254.49h-3.77l-1.77-5.54h-10.57l-1.79,5.54h-3.59l8.43-25.38h4.74L271.41,254.49z M264.89,245.87
			l-4.29-13.58l-4.29,13.58H264.89z"/>
	</g>
</g>
</svg>
