<?xml version="1.0" encoding="utf-8"?>
<!-- Generator: Adobe Illustrator 25.4.1, SVG Export Plug-In . SVG Version: 6.00 Build 0)  -->
<svg version="1.1" id="Layer_1" xmlns="http://www.w3.org/2000/svg" xmlns:xlink="http://www.w3.org/1999/xlink" x="0px" y="0px"
	 viewBox="0 0 350 200" style="enable-background:new 0 0 350 200;" xml:space="preserve">
<style type="text/css">
	.st0{fill:#FFFFFF;}
	.st1{enable-background:new    ;}
</style>
<g>
	<path id="Path_1" class="st0" d="M303.47,127.23C300.88,54.42,239.75-2.51,166.95,0.09C97.13,2.57,41.37,59.04,39.74,128.87
		c-5.41,4.41-10.81,8.82-16.21,13.22c0.53,0.72,1.05,1.42,1.57,2.16c5.65-4.11,11.31-8.22,16.96-12.33l4.61-3.35
		c11.92-8.67,23.92-17.38,36.09-26.22c1.65,9.68,4.21,18.36-6.71,23.55c2.99,1.42,4.95,2.38,7.2,3.46
		c-1.77,5.23-3.42,10.12-5.17,15.32c8.2,1.58,14.66,1.61,21.31-4.44c33.09-30.09,66.72-59.61,100.16-89.34
		c1.54-1.36,3.17-2.62,4.75-3.92c0.24,0.3,0.48,0.6,0.72,0.9c-5.11,10.27-10.23,20.54-15.91,31.97c7.34,0.26,13.63,0.49,21.49,0.78
		c-13.39,15.58-25.66,29.84-38.18,44.41l16.33,7.78l-18.34,14.31l0.49,1.97c5.54,0.45,11.11,0.6,16.68,0.43
		c3.4-0.17,6.68-1.4,9.34-3.52c7.83-7.24,15.05-15.11,22.57-22.7c10.01-10.09,20.08-20.14,30.22-30.3
		c6.58,9.45,2.15,19.17,1.49,29.1c2.02-0.62,3.98-1.4,5.87-2.34c5.38-3.36,9.38-2.04,13.57,2.52c4.53,4.91,9.27,10.3,15.06,13.21
		c12.87,6.48,26.44,11.54,39.72,17.19l1.04-1C318.83,143.55,311.16,135.39,303.47,127.23z M208.95,26.91l-97.63,90.2L83.29,93.32
		c-12.19,9.94-24.3,19.83-36.35,29.68C51.87,54.13,111.69,2.32,180.56,7.25c60.58,4.35,109.28,51.62,115.42,112.05
		C267.16,88.69,238.15,57.89,208.95,26.91L208.95,26.91z"/>
	<g class="st1">
		<path class="st0" d="M87.16,200h-4.04l-0.6-18.91l-0.25-7.26l-1.41,4.22l-4.48,12.07h-2.86l-4.26-11.6l-1.41-4.68l-0.1,7.59
			L67.22,200h-3.89l1.48-30.32h4.9l4.09,11.42l1.33,3.85l1.28-3.85l4.29-11.42h5.03L87.16,200z"/>
		<path class="st0" d="M137.95,200h-4.5l-2.11-6.62h-12.62l-2.14,6.62h-4.29l10.07-30.32h5.66L137.95,200z M130.15,189.7
			l-5.13-16.22l-5.13,16.22H130.15z"/>
		<path class="st0" d="M186.33,200h-4.66l-4.53-9.7c-0.33-0.74-0.69-1.36-1.04-1.84c-0.36-0.49-0.74-0.87-1.15-1.16
			c-0.41-0.29-0.86-0.49-1.35-0.62c-0.49-0.12-1.03-0.19-1.64-0.19h-1.95v13.5h-4.13v-30.32h8.12c1.77,0,3.27,0.19,4.55,0.59
			c1.27,0.38,2.31,0.93,3.12,1.62c0.81,0.69,1.41,1.54,1.79,2.52c0.38,0.98,0.57,2.07,0.57,3.26c0,0.94-0.14,1.84-0.42,2.68
			c-0.27,0.85-0.69,1.61-1.24,2.29c-0.55,0.69-1.23,1.29-2.04,1.79c-0.81,0.5-1.74,0.88-2.8,1.12c0.85,0.3,1.58,0.81,2.17,1.54
			c0.6,0.73,1.21,1.71,1.83,2.94L186.33,200z M179.71,178.01c0-1.62-0.5-2.84-1.52-3.64c-1.02-0.8-2.44-1.21-4.28-1.21h-3.89v10.02
			h3.35c0.98,0,1.85-0.11,2.63-0.33c0.78-0.23,1.45-0.56,2-0.99c0.55-0.44,0.98-0.98,1.28-1.62
			C179.56,179.58,179.71,178.84,179.71,178.01z"/>
		<path class="st0" d="M236.12,200h-5.2l-11.35-14.87V200h-4.13v-30.32h4.13v14.09l11.11-14.09h4.9l-11.97,14.41L236.12,200z"/>
		<path class="st0" d="M287.6,200h-4.5l-2.11-6.62h-12.63l-2.14,6.62h-4.29l10.07-30.32h5.66L287.6,200z M279.81,189.7l-5.13-16.22
			l-5.13,16.22H279.81z"/>
	</g>
</g>
</svg>
