<svg id="Layer_1" data-name="Layer 1" xmlns="http://www.w3.org/2000/svg" viewBox="0 0 253.6 179.43"><defs><style>.cls-1,.cls-3{fill:#fff;}.cls-2,.cls-3{isolation:isolate;}.cls-3{font-size:39.78px;font-family:Consolas;letter-spacing:0.5em;}</style></defs><g id="Group_9" data-name="Group 9"><path id="Path_1" data-name="Path 1" class="cls-1" d="M284.7,193.58A110.43,110.43,0,0,0,63.94,195L50.38,206l1.31,1.81,14.2-10.32,3.86-2.8,30.21-22c1.37,8.1,3.52,15.37-5.62,19.71,2.5,1.19,4.14,2,6,2.9-1.47,4.37-2.86,8.47-4.32,12.81,6.86,1.33,12.27,1.35,17.84-3.71,27.7-25.19,55.85-49.9,83.84-74.78,1.29-1.14,2.66-2.19,4-3.28l.6.75L189,153.92l18,.65c-11.21,13.05-21.47,25-31.95,37.17l13.67,6.51-15.34,12,.41,1.64a125,125,0,0,0,14,.37,13.61,13.61,0,0,0,7.82-2.95c6.55-6.06,12.6-12.65,18.89-19,8.39-8.45,16.82-16.86,25.3-25.36,5.51,7.91,1.8,16.05,1.25,24.36a31,31,0,0,0,4.91-2c4.51-2.81,7.85-1.71,11.36,2.11,3.79,4.11,7.75,8.62,12.61,11.06,10.76,5.42,22.12,9.66,33.24,14.39l.87-.84Zm-79.12-84-81.72,75.5-23.47-19.91L70,190a104.63,104.63,0,0,1,208.46-3.09L205.58,109.6Z" transform="translate(-50.38 -87.08)"/><g id="MARKA" class="cls-2"><text class="cls-3" transform="translate(32.34 167.41)">MARKA</text></g></g></svg>