<?xml version="1.0" encoding="UTF-8"?>
<!DOCTYPE svg PUBLIC "-//W3C//DTD SVG 1.1//EN" "http://www.w3.org/Graphics/SVG/1.1/DTD/svg11.dtd">
<!-- Creator: CorelDRAW -->
<svg xmlns="http://www.w3.org/2000/svg" xml:space="preserve" width="4.06296in" height="4.74187in" style="shape-rendering:geometricPrecision; text-rendering:geometricPrecision; image-rendering:optimizeQuality; fill-rule:evenodd; clip-rule:evenodd"
viewBox="0 0 4.06295 4.74186"
 xmlns:xlink="http://www.w3.org/1999/xlink">
 <defs>
  <style type="text/css">
   <![CDATA[
    .fil1 {fill:#212123}
    .fil0 {fill:#61C7CE}
    .fil2 {fill:#EE3A64}
   ]]>
  </style>
 </defs>
 <g id="Layer_x0020_1">
  <metadata id="CorelCorpID_0Corel-Layer"/>
  <g id="_746157336">
   <path id="_250801504" class="fil0" d="M2.8085 0c-0.000220472,0.0633975 0.00801967,0.131484 0.0183897,0.193645l-0.600483 0 0 2.98973c0,0.137811 -0.0141417,0.260551 -0.0424133,0.368212 -0.00388582,0.00856691 -0.00788581,0.0169921 -0.0120039,0.0252362 -0.000397637,0.000791337 -0.000814959,0.00154724 -0.0012126,0.00233464 -0.00373621,0.00740943 -0.0075118,0.0147638 -0.0114134,0.021933 -0.000696849,0.00127953 -0.00143307,0.0025 -0.00213385,0.00377165 -0.00366141,0.00662597 -0.00735038,0.0132165 -0.0111535,0.0196378 -0.000755904,0.00127953 -0.00155512,0.00250393 -0.00231889,0.00377558 -0.00379921,0.00631889 -0.00762991,0.0125984 -0.0115669,0.0187126 -0.000818896,0.00127559 -0.00166929,0.00249212 -0.00249606,0.0037559 -0.00395669,0.00605117 -0.00793699,0.0120551 -0.0120197,0.0179094 -0.000799211,0.00114173 -0.00162598,0.00223622 -0.00242913,0.00337007 -0.00412991,0.00583857 -0.00829526,0.0116299 -0.0125512,0.0172677 -0.00100787,0.00133858 -0.00205905,0.00262204 -0.00307873,0.00394881 -0.00410235,0.00534251 -0.00822833,0.0106535 -0.012437,0.0158149 -0.00119685,0.00146063 -0.00242126,0.00286614 -0.00362598,0.00431495 -0.00409842,0.00493306 -0.00821652,0.00983463 -0.0124134,0.0145984 -0.00127559,0.00144488 -0.00257874,0.00283464 -0.0038622,0.00426377 -0.0042244,0.00470472 -0.00846849,0.00937793 -0.0127834,0.0139173 -0.00124409,0.00130708 -0.00252362,0.00256299 -0.00377558,0.00385826 -0.00435039,0.00449605 -0.00872439,0.00895274 -0.0131653,0.0132795 -0.00145275,0.00141338 -0.00293307,0.00277165 -0.00439369,0.00416928 -0.00432283,0.00412991 -0.0086614,0.00822439 -0.013063,0.0122008 -0.00153149,0.00138189 -0.00308661,0.00271259 -0.00462598,0.0040748 -0.00437794,0.00387401 -0.0087677,0.00771258 -0.0132204,0.011433 -0.00166141,0.00138582 -0.00334251,0.00272047 -0.0050118,0.00408661 -0.00439369,0.00359054 -0.00880313,0.00715747 -0.0132559,0.0106063 -0.00174409,0.00135433 -0.0035118,0.00265748 -0.00527164,0.00398818 -0.00442125,0.00334645 -0.00885825,0.0066614 -0.0133425,0.00987006 -0.00186614,0.00133858 -0.00375196,0.00262598 -0.00562991,0.003937 -0.0044055,0.00307873 -0.00883069,0.00612991 -0.0132952,0.00907872 -0.0020433,0.00135433 -0.00411023,0.00265748 -0.00616928,0.00398031 -0.00431889,0.00277952 -0.00865353,0.00553149 -0.0130197,0.0081929 -0.00224015,0.0013622 -0.00449212,0.0026811 -0.00674408,0.0040118 -0.00424409,0.00250787 -0.00849605,0.00499212 -0.0127795,0.00739369 -0.00238582,0.00133858 -0.00478739,0.00262992 -0.00718503,0.00392913 -0.00422046,0.00229133 -0.00845274,0.00455117 -0.0127086,0.00674014 -0.0024685,0.00126771 -0.00494881,0.00249212 -0.00742912,0.0037244 -0.00418897,0.00207874 -0.00838581,0.00412598 -0.0126063,0.00610629 -0.00267322,0.00125197 -0.00535432,0.00246456 -0.00803935,0.00367716 -0.00405511,0.00183071 -0.00811416,0.00362991 -0.0121929,0.00537007 -0.00283858,0.00120866 -0.00568897,0.00238582 -0.00853935,0.00355117 -0.00397637,0.00162598 -0.00796061,0.00322047 -0.0119606,0.00476377 -0.00297637,0.00114567 -0.00596062,0.00226378 -0.0089488,0.0033622 -0.00389763,0.00143307 -0.00780707,0.00284251 -0.0117204,0.00419684 -0.00318503,0.0011063 -0.00637794,0.00216929 -0.00957872,0.00322047 -0.00364173,0.00119685 -0.00729526,0.00237007 -0.0109527,0.00349999 -0.00349212,0.00107874 -0.00698818,0.00212204 -0.0104921,0.00313779 -0.00349999,0.00101575 -0.00699999,0.00200393 -0.0105118,0.00296062 -0.00360236,0.00098425 -0.00721258,0.00192913 -0.0108268,0.00284251 -0.00338188,0.000858266 -0.0067677,0.00168897 -0.0101614,0.00249212 -0.0038307,0.000909447 -0.00767321,0.00178346 -0.0115157,0.00261811 -0.00313385,0.000681101 -0.00627164,0.00133858 -0.00941337,0.00197637 -0.00409054,0.000830707 -0.00818109,0.00162598 -0.0122795,0.00237401 -0.00294488,0.000539369 -0.00589369,0.00104331 -0.0088425,0.0015433 -0.00431889,0.000728345 -0.00863778,0.00142913 -0.0129645,0.00207086 -0.00266929,0.000397637 -0.00533857,0.000767715 -0.00800786,0.00112992 -0.00460629,0.00062992 -0.00921652,0.00122047 -0.0138267,0.00175197 -0.00240551,0.00027559 -0.00481101,0.000527558 -0.00722046,0.000779526 -0.00488188,0.00051181 -0.00977163,0.000980313 -0.0146575,0.00138189 -0.00211417,0.000173228 -0.00423228,0.000322834 -0.00634251,0.000476377 -0.00512991,0.000374015 -0.0102598,0.00070866 -0.0153897,0.000964565 -0.00188976,9.4488e-005 -0.00377558,0.000165354 -0.00566534,0.000244094 -0.00540156,0.000228346 -0.0107953,0.000409448 -0.0161889,0.000503936l-0.00450787 5.1181e-005c-0.00577952,6.6929e-005 -0.011559,8.2677e-005 -0.0173307,0l-0.00329921 -6.6929e-005c-0.00609054,-0.000114173 -0.0121771,-0.000291338 -0.018248,-0.000566928l-0.00254724 -0.000133858c-0.00634251,-0.000307086 -0.012685,-0.000688975 -0.0190039,-0.00117323l-0.00141732 -0.000122047c-0.203779,-0.016063 -0.392865,-0.122086 -0.479412,-0.289401 0.284842,0.178338 0.753188,0.130988 0.945392,-0.292338 0.0280393,-0.107433 0.0421692,-0.230401 0.0421692,-0.368216l3.937e-006 -2.98973 0.76514 0zm0.408602 0.904223c0.154771,0.123641 0.368165,0.214803 0.662341,0.232232l0 0.171752 -0.000374015 -6.2992e-005 -0.00459842 -0.000877951c-0.0126929,-0.0023937 -0.0252086,-0.004937 -0.0375393,-0.00763384l-0.00430314 -0.00094488c-0.0122756,-0.00273228 -0.0243543,-0.00562204 -0.0362755,-0.00864565l-0.00481495 -0.0012126c-0.0118228,-0.00304724 -0.0234527,-0.00625589 -0.0349251,-0.0095866l-0.00558267 -0.00162204c-0.011189,-0.00330708 -0.0222007,-0.00674802 -0.0330629,-0.0103149l-0.00608267 -0.00201574c-0.0105866,-0.00353936 -0.0210315,-0.00719684 -0.031311,-0.0109764 -0.00216535,-0.000795274 -0.00431495,-0.0016063 -0.00646849,-0.00241338 -0.010122,-0.00379527 -0.0201141,-0.00768896 -0.0299369,-0.0117047 -0.00207874,-0.000850392 -0.00414172,-0.00172047 -0.00620865,-0.00258267 -0.00920077,-0.0038307 -0.0182716,-0.00775589 -0.0272125,-0.0117756 -0.00261417,-0.00117323 -0.00520865,-0.0023622 -0.0077992,-0.00355117 -0.00848817,-0.00389763 -0.0168582,-0.00788581 -0.0251141,-0.0119527 -0.00270866,-0.00133464 -0.0054055,-0.00267322 -0.00809054,-0.00402361 -0.00813778,-0.00410235 -0.0161574,-0.00828345 -0.0240748,-0.0125393 -0.00251574,-0.00135039 -0.00502755,-0.00270866 -0.00751967,-0.0040748 -0.0080118,-0.0044055 -0.0159015,-0.00888975 -0.0236811,-0.0134449 -0.00248425,-0.00145669 -0.00497243,-0.00291338 -0.00743306,-0.00438582 -0.00768896,-0.00459448 -0.0152677,-0.00926376 -0.0227283,-0.0140039 -0.00249606,-0.00158661 -0.00497637,-0.0031811 -0.0074488,-0.00478346 -0.00715353,-0.00463779 -0.0142086,-0.00933856 -0.0211535,-0.0141063 -0.00268897,-0.00185039 -0.00535826,-0.00370865 -0.00801573,-0.00557479 -0.00638188,-0.00447637 -0.0126771,-0.00900392 -0.0188819,-0.0135866 -0.00287795,-0.00212598 -0.00573621,-0.00426377 -0.00857479,-0.00640944 -0.00599605,-0.00453542 -0.0119016,-0.00911416 -0.0177322,-0.0137401 -0.00286614,-0.00227559 -0.00571652,-0.00455905 -0.00854329,-0.00685825 -0.00568897,-0.00462204 -0.0112992,-0.00929132 -0.0168267,-0.014 -0.00287795,-0.00245275 -0.00573227,-0.00491338 -0.00856691,-0.00738581 -0.00534645,-0.00466928 -0.010626,-0.009374 -0.0158267,-0.0141141 -0.00268503,-0.00244881 -0.00535038,-0.00491338 -0.00799605,-0.00738188 -0.00527164,-0.00492125 -0.0104606,-0.00987793 -0.0155787,-0.014874 -0.00233858,-0.00228346 -0.00466535,-0.00457479 -0.00697243,-0.006874 -0.00538582,-0.00536613 -0.010685,-0.0107756 -0.0158937,-0.0162204m-0.0198976 -0.0214645c-0.00269685,-0.00299606 -0.00537401,-0.00599605 -0.00801967,-0.00901179 -0.00407086,-0.00463385 -0.00807872,-0.00929526 -0.0120354,-0.0139764 -0.00279527,-0.00330708 -0.00556692,-0.00662597 -0.00830707,-0.00995274 -0.00378346,-0.00459448 -0.0075118,-0.00920864 -0.011189,-0.0138425 -0.00275984,-0.00348031 -0.00548818,-0.00696849 -0.00818896,-0.0104685 -0.00341338,-0.00441731 -0.00678345,-0.00885038 -0.0101023,-0.0132992 -0.00284645,-0.00381889 -0.00565353,-0.00764172 -0.00843305,-0.0114803 -0.00101968,-0.00140551 -0.00200787,-0.00282283 -0.00301968,-0.00423228m-2.74766 3.2836c-0.321444,-0.278968 -0.4692,-0.670176 -0.469436,-1.06153 -0.000476377,-0.801384 0.617637,-1.60336 1.62968,-1.44334l0 0.175193c-1.27221,-0.0591889 -1.83213,1.4583 -1.16025,2.32968z"/>
   <path id="_250798504" class="fil1" d="M2.99156 0.193645l0 0.00382283c0.000224409,0.0692361 0.0204921,1.07019 1.07092,1.13263 0,0.931199 0.00047244,0 0.00047244,0.773392 -0.0789172,0.00468109 -0.691412,-0.0395747 -1.07258,-0.379539l-0.00117323 1.5056c0.00942518,0.681759 -0.37009,1.35032 -1.08059,1.48507 -0.0900471,0.0170511 -0.176039,0.0272559 -0.271062,0.0272401l-0.000858266 0c-0.11483,-9.8425e-005 -0.242897,-0.015122 -0.407271,-0.0510353 -1.73334,-0.518491 -1.15736,-3.08934 0.583078,-2.81422 0,0.829975 0.000476377,-0.000232283 0.000476377,0.829975 -0.718987,-0.105779 -0.95951,0.492346 -0.768459,0.92062 0.173885,0.389893 0.889774,0.474456 1.13948,-0.0756062 0.0282716,-0.107665 0.0424133,-0.230401 0.0424133,-0.368216l0 -2.98973 0.765152 0z"/>
   <path id="_476362072" class="fil2" d="M2.99156 0.193645l0 0.00382283c0,0.0407007 0.0072992,0.402129 0.225437,0.70668 -0.262901,-0.21035 -0.356661,-0.514239 -0.390106,-0.710503l0.164669 0zm0.887884 1.11457c0.05724,0.0105433 0.11826,0.0180826 0.183039,0.0218818 0,0.931199 0.00047244,0 0.00047244,0.773392 -0.0789172,0.00468109 -0.691412,-0.0395747 -1.07258,-0.379539l-0.00117323 1.5056c0.00942518,0.681759 -0.37009,1.35032 -1.08059,1.48507 -0.0900471,0.0170511 -0.176039,0.0272559 -0.271062,0.0272401l-0.000858266 0c-0.11483,-9.8425e-005 -0.242897,-0.015122 -0.407271,-0.0510353 -0.338736,-0.101295 -0.588889,-0.281267 -0.759916,-0.502948 0.152389,0.13239 0.343673,0.239578 0.577137,0.309551 0.300558,0.0654841 0.479865,0.06124 0.678924,0.0235433 0.710506,-0.134748 1.09002,-0.803302 1.08083,-1.48482l0.000952754 -1.50584c0.381153,0.339964 0.993648,0.384464 1.07281,0.379511 0,-0.718239 -0.00070866,0.0334842 -0.00070866,-0.601601zm-2.24976 0.550042c0.0593385,0.00259448 0.120382,0.00845274 0.182807,0.0183425 0,0.829975 0.000476377,-0.000232283 0.000476377,0.829975 -0.718987,-0.105779 -0.95951,0.492346 -0.768459,0.92062 0.0035118,0.00778345 0.00730707,0.015559 0.0112834,0.0230944 -0.0855116,-0.0534802 -0.154275,-0.12698 -0.194287,-0.216736 -0.190826,-0.428283 0.0494369,-1.0264 0.768412,-0.920628 0,-0.76068 -0.000232283,-0.127689 -0.000232283,-0.654668z"/>
  </g>
 </g>
</svg>
